<?xml version="1.0" standalone="no"?>
<!DOCTYPE svg PUBLIC "-//W3C//DTD SVG 20010904//EN"
 "http://www.w3.org/TR/2001/REC-SVG-20010904/DTD/svg10.dtd">
<svg version="1.0" xmlns="http://www.w3.org/2000/svg"
 width="300.000000pt" height="300.000000pt" viewBox="0 0 300.000000 300.000000"
 preserveAspectRatio="xMidYMid meet">

<g transform="translate(0.000000,300.000000) scale(0.100000,-0.100000)"
fill="#000000" stroke="none">
<path d="M1818 2535 c-60 -16 -130 -57 -157 -91 -11 -14 -27 -46 -36 -72 -11
-33 -52 -90 -138 -191 l-122 -144 -62 -13 c-166 -34 -242 -113 -243 -254 0
-82 26 -131 95 -180 27 -19 74 -58 104 -86 94 -86 154 -106 243 -80 66 19 129
71 158 131 25 51 30 148 10 199 -12 33 -6 46 69 136 117 142 166 192 200 206
84 35 121 104 128 239 4 80 2 95 -19 135 -39 75 -115 97 -230 65z m-60 -356
c4 -31 -76 -143 -117 -163 -35 -17 -61 -10 -61 17 0 21 101 161 123 171 28 11
52 1 55 -25z m-381 -334 c19 -8 53 -15 74 -15 44 0 69 -21 69 -56 0 -14 5 -45
11 -70 27 -106 -71 -180 -136 -102 -28 33 -28 44 -10 135 6 26 3 33 -15 43
-11 6 -31 10 -43 9 -33 -2 -87 12 -87 24 0 6 7 19 17 29 20 22 70 24 120 3z"/>
</g>
</svg>
